<?xml version="1.0" encoding="UTF-8" standalone="no"?>
<svg
   xmlns:dc="http://purl.org/dc/elements/1.1/"
   xmlns:cc="http://creativecommons.org/ns#"
   xmlns:rdf="http://www.w3.org/1999/02/22-rdf-syntax-ns#"
   xmlns:svg="http://www.w3.org/2000/svg"
   xmlns="http://www.w3.org/2000/svg"
   xmlns:xlink="http://www.w3.org/1999/xlink"
   xml:space="preserve"
   enable-background="new 0 0 196.052 84.956"
   viewBox="0 0 360.04196 88.045997"
   height="88.045998"
   width="360.04196"
   y="0px"
   x="0px"
   id="Ebene_1"
   version="1.1"><metadata
     id="metadata25"><rdf:RDF><cc:Work
         rdf:about=""><dc:format>image/svg+xml</dc:format><dc:type
           rdf:resource="http://purl.org/dc/dcmitype/StillImage" /><dc:title></dc:title></cc:Work></rdf:RDF></metadata><defs
     id="defs23" /><g
     transform="translate(-1.076,1.42)"
     id="g18"><defs
       id="defs3"><rect
         y="0"
         x="0"
         height="84.956001"
         width="196.052"
         id="SVGID_1_" /></defs><clipPath
       id="SVGID_2_"><use
         height="100%"
         width="100%"
         y="0"
         x="0"
         style="overflow:visible"
         id="use5"
         overflow="visible"
         xlink:href="#SVGID_1_" /></clipPath><path
       style="fill:#e8462b"
       id="path8"
       d="m 89.187,46.405 h -5.19 c -2.369,0 -3.679,1.109 -3.679,2.975 0,1.813 1.21,3.022 3.78,3.022 1.814,0 2.973,-0.15 4.132,-1.26 0.706,-0.655 0.957,-1.713 0.957,-3.326 z m 0.151,11.088 v -2.269 c -1.764,1.764 -3.427,2.521 -6.45,2.521 -2.974,0 -5.141,-0.757 -6.703,-2.318 -1.411,-1.462 -2.167,-3.578 -2.167,-5.896 0,-4.183 2.872,-7.609 8.97,-7.609 h 6.198 v -1.31 c 0,-2.872 -1.41,-4.132 -4.888,-4.132 -2.519,0 -3.678,0.605 -5.039,2.167 l -4.182,-4.082 c 2.569,-2.822 5.089,-3.628 9.473,-3.628 7.358,0 11.188,3.124 11.188,9.272 v 17.286 h -6.4 z"
       clip-path="url(#SVGID_2_)" /><path
       style="fill:#e8462b"
       id="path10"
       d="M 131.23,57.493 V 41.619 c 0,-3.578 -2.269,-4.787 -4.334,-4.787 -2.017,0 -4.384,1.209 -4.384,4.636 v 16.025 h -6.553 V 41.619 c 0,-3.578 -2.267,-4.787 -4.333,-4.787 -2.065,0 -4.385,1.209 -4.385,4.787 V 57.494 H 100.69 V 31.238 h 6.399 v 2.419 c 1.715,-1.764 4.133,-2.721 6.552,-2.721 2.923,0 5.291,1.058 6.955,3.326 2.217,-2.319 4.586,-3.326 7.86,-3.326 2.62,0 4.989,0.856 6.45,2.318 2.117,2.116 2.873,4.586 2.873,7.458 v 16.781 z"
       clip-path="url(#SVGID_2_)" /><rect
       style="fill:#e8462b"
       id="rect12"
       height="26.254999"
       width="6.5510001"
       clip-path="url(#SVGID_2_)"
       y="31.238001"
       x="142.733" /><polygon
       style="fill:#e8462b"
       id="polygon14"
       points="162.836,57.493 167.977,57.493 177.602,31.24 177.602,31.238 170.697,31.238 165.406,47.465 160.065,31.238 153.161,31.238 "
       clip-path="url(#SVGID_2_)" /><path
       style="fill:#e8462b"
       id="path16"
       d="m 69.703,45.854 c 0.141,-1.064 0.221,-2.148 0.221,-3.251 0,-1.103 -0.08,-2.186 -0.221,-3.251 L 63.956,38.46 C 63.699,37.313 63.337,36.189 62.87,35.103 l 4.121,-4.096 c -0.511,-0.944 -1.083,-1.868 -1.731,-2.76 -0.648,-0.892 -1.35,-1.722 -2.09,-2.5 l -5.168,2.652 c -0.437,-0.384 -0.893,-0.753 -1.373,-1.102 -0.484,-0.351 -0.98,-0.673 -1.484,-0.972 L 56.071,20.59 C 55.103,20.126 54.097,19.715 53.047,19.374 51.999,19.033 50.943,18.775 49.888,18.58 l -2.626,5.192 c -1.174,-0.107 -2.352,-0.103 -3.52,0.007 L 41.113,18.58 c -1.056,0.195 -2.111,0.453 -3.16,0.794 -1.049,0.341 -2.055,0.752 -3.023,1.215 l 0.927,5.743 c -1.004,0.593 -1.958,1.286 -2.851,2.071 l -5.175,-2.656 c -0.74,0.778 -1.442,1.607 -2.09,2.5 -0.649,0.892 -1.221,1.816 -1.732,2.76 l 4.126,4.101 c -0.472,1.092 -0.836,2.214 -1.089,3.351 l -5.748,0.893 c -0.142,1.064 -0.222,2.148 -0.222,3.251 0,1.103 0.08,2.186 0.222,3.251 l 5.756,0.894 c 0.256,1.145 0.617,2.267 1.082,3.35 L 24.009,54.2 c 0.511,0.944 1.083,1.868 1.732,2.76 0.648,0.893 1.349,1.723 2.09,2.5 l 5.168,-2.652 c 0.441,0.387 0.9,0.759 1.384,1.11 0.48,0.349 0.972,0.669 1.472,0.966 l -0.926,5.733 c 0.969,0.464 1.975,0.875 3.024,1.216 1.049,0.342 2.104,0.6 3.16,0.793 l 2.622,-5.185 c 1.177,0.109 2.357,0.106 3.528,-0.004 l 2.624,5.189 c 1.056,-0.194 2.112,-0.452 3.16,-0.794 1.05,-0.341 2.055,-0.752 3.024,-1.215 l -0.925,-5.729 c 1.008,-0.596 1.965,-1.29 2.862,-2.079 l 5.162,2.649 c 0.74,-0.777 1.441,-1.607 2.09,-2.5 0.648,-0.892 1.22,-1.815 1.731,-2.76 l -4.115,-4.091 c 0.473,-1.096 0.838,-2.221 1.093,-3.364 z m -36.652,2.467 c -1.989,-4.355 -1.65,-9.632 1.36,-13.775 4.445,-6.118 13.038,-7.479 19.156,-3.034 0.435,0.316 0.839,0.658 1.225,1.013 l -4.176,3.034 -4.056,-5.582 -4.473,3.25 4.056,5.583 -0.007,0.005 -12.772,1.245 3.82,5.258 z m 23.55,2.347 c -4.445,6.118 -13.038,7.479 -19.156,3.034 -0.397,-0.289 -0.772,-0.596 -1.129,-0.918 l 4.119,-2.992 4.095,5.638 5.135,-11.771 3.768,5.186 4.473,-3.25 -4.039,-5.56 4.147,-3.013 c 1.926,4.331 1.568,9.542 -1.413,13.646"
       clip-path="url(#SVGID_2_)" /><g
       id="text834"
       style="font-style:normal;font-weight:normal;font-size:40px;line-height:1.25;font-family:sans-serif;letter-spacing:0px;word-spacing:0px;fill:#000000;fill-opacity:1;stroke:none"
       aria-label="BOUNCER"><path
         id="path957"
         style="font-style:normal;font-variant:normal;font-weight:bold;font-stretch:normal;font-size:36px;font-family:DINPro;-inkscape-font-specification:'DINPro, Bold';font-variant-ligatures:normal;font-variant-caps:normal;font-variant-numeric:normal;font-feature-settings:normal;text-align:start;writing-mode:lr-tb;text-anchor:start;fill:#ffffff;fill-opacity:1"
         d="m 199.66497,50.022946 c 0,-3.42 -1.98,-5.04 -3.528,-5.76 1.296,-0.612 3.168,-2.448 3.168,-5.292 0,-4.392 -2.916,-7.2 -7.92,-7.2 h -10.296 v 25.632 h 10.728 c 4.572,0 7.848,-2.592 7.848,-7.38 z m -5.004,-0.252 c 0,1.728 -1.08,3.168 -3.348,3.168 h -5.22 v -6.3 h 5.22 c 2.268,0 3.348,1.404 3.348,3.132 z m -0.36,-10.584 c 0,1.764 -1.188,2.952 -3.312,2.952 h -4.896 v -5.904 h 4.896 c 2.124,0 3.312,1.188 3.312,2.952 z" /><path
         id="path959"
         style="font-style:normal;font-variant:normal;font-weight:bold;font-stretch:normal;font-size:36px;font-family:DINPro;-inkscape-font-specification:'DINPro, Bold';font-variant-ligatures:normal;font-variant-caps:normal;font-variant-numeric:normal;font-feature-settings:normal;text-align:start;writing-mode:lr-tb;text-anchor:start;fill:#ffffff;fill-opacity:1"
         d="m 222.85628,44.586946 c 0,-4.428 0.036,-7.632 -2.556,-10.224 -1.8,-1.8 -3.996,-2.808 -6.912,-2.808 -2.916,0 -5.148,1.008 -6.948,2.808 -2.592,2.592 -2.52,5.796 -2.52,10.224 0,4.428 -0.072,7.632 2.52,10.224 1.8,1.8 4.032,2.808 6.948,2.808 2.916,0 5.112,-1.008 6.912,-2.808 2.592,-2.592 2.556,-5.796 2.556,-10.224 z m -5.004,0 c 0,4.932 -0.288,6.12 -1.26,7.2 -0.72,0.828 -1.836,1.368 -3.204,1.368 -1.368,0 -2.52,-0.54 -3.24,-1.368 -0.972,-1.08 -1.224,-2.268 -1.224,-7.2 0,-4.932 0.252,-6.12 1.224,-7.2 0.72,-0.828 1.872,-1.368 3.24,-1.368 1.368,0 2.484,0.54 3.204,1.368 0.972,1.08 1.26,2.268 1.26,7.2 z" /><path
         id="path961"
         style="font-style:normal;font-variant:normal;font-weight:bold;font-stretch:normal;font-size:36px;font-family:DINPro;-inkscape-font-specification:'DINPro, Bold';font-variant-ligatures:normal;font-variant-caps:normal;font-variant-numeric:normal;font-feature-settings:normal;text-align:start;writing-mode:lr-tb;text-anchor:start;fill:#ffffff;fill-opacity:1"
         d="m 246.4554,48.618946 v -16.848 h -4.968 v 16.668 c 0,2.952 -1.764,4.716 -4.464,4.716 -2.7,0 -4.428,-1.764 -4.428,-4.716 v -16.668 h -5.004 v 16.848 c 0,5.436 4.176,9 9.432,9 5.256,0 9.432,-3.564 9.432,-9 z" /><path
         id="path963"
         style="font-style:normal;font-variant:normal;font-weight:bold;font-stretch:normal;font-size:36px;font-family:DINPro;-inkscape-font-specification:'DINPro, Bold';font-variant-ligatures:normal;font-variant-caps:normal;font-variant-numeric:normal;font-feature-settings:normal;text-align:start;writing-mode:lr-tb;text-anchor:start;fill:#ffffff;fill-opacity:1"
         d="m 271.65428,57.402946 v -25.632 h -5.004 v 15.696 l -10.152,-15.696 h -4.464 v 25.632 h 5.004 v -15.732 l 10.152,15.732 z" /><path
         id="path965"
         style="font-style:normal;font-variant:normal;font-weight:bold;font-stretch:normal;font-size:36px;font-family:DINPro;-inkscape-font-specification:'DINPro, Bold';font-variant-ligatures:normal;font-variant-caps:normal;font-variant-numeric:normal;font-feature-settings:normal;text-align:start;writing-mode:lr-tb;text-anchor:start;fill:#ffffff;fill-opacity:1"
         d="m 295.62803,49.518946 h -5.076 c -0.54,2.196 -1.908,3.636 -4.32,3.636 -1.368,0 -2.448,-0.432 -3.204,-1.332 -1.044,-1.116 -1.26,-2.268 -1.26,-7.236 0,-4.968 0.216,-6.12 1.26,-7.236 0.756,-0.9 1.836,-1.332 3.204,-1.332 2.412,0 3.78,1.44 4.32,3.636 h 5.076 c -0.864,-5.22 -4.5,-8.1 -9.432,-8.1 -2.736,0 -5.04,0.936 -6.912,2.808 -1.116,1.116 -1.8,2.376 -2.088,3.852 -0.288,1.44 -0.432,3.564 -0.432,6.372 0,2.808 0.144,4.932 0.432,6.372 0.288,1.44 0.972,2.736 2.088,3.852 1.872,1.872 4.176,2.808 6.912,2.808 4.896,0 8.568,-2.88 9.432,-8.1 z" /><path
         id="path967"
         style="font-style:normal;font-variant:normal;font-weight:bold;font-stretch:normal;font-size:36px;font-family:DINPro;-inkscape-font-specification:'DINPro, Bold';font-variant-ligatures:normal;font-variant-caps:normal;font-variant-numeric:normal;font-feature-settings:normal;text-align:start;writing-mode:lr-tb;text-anchor:start;fill:#ffffff;fill-opacity:1"
         d="m 316.80109,57.402946 v -4.464 h -11.88 v -6.228 h 10.116 v -4.464 h -10.116 v -6.012 h 11.88 v -4.464 h -16.884 v 25.632 z" /><path
         id="path969"
         style="font-style:normal;font-variant:normal;font-weight:bold;font-stretch:normal;font-size:36px;font-family:DINPro;-inkscape-font-specification:'DINPro, Bold';font-variant-ligatures:normal;font-variant-caps:normal;font-variant-numeric:normal;font-feature-settings:normal;text-align:start;writing-mode:lr-tb;text-anchor:start;fill:#ffffff;fill-opacity:1"
         d="m 341.11797,57.402946 -5.724,-11.052 c 2.484,-0.9 4.68,-3.132 4.68,-6.732 0,-4.284 -3.096,-7.848 -8.316,-7.848 h -10.044 v 25.632 h 5.004 v -10.224 h 3.6 l 5.004,10.224 z m -6.048,-17.784 c 0,1.98 -1.44,3.384 -3.636,3.384 h -4.716 v -6.768 h 4.716 c 2.196,0 3.636,1.404 3.636,3.384 z" /></g></g></svg>